<svg viewBox="0 0 211 35" fill="none" xmlns="http://www.w3.org/2000/svg">
<g clip-path="url(#clip0_1089_579)">
<path d="M47.7139 15.4872C47.4999 16.0192 47.3939 16.6632 47.3939 17.4192C47.3939 18.1752 47.4999 18.8372 47.7099 19.3752C47.9219 19.9132 48.2199 20.3212 48.6059 20.6032C48.9919 20.8852 49.4419 21.0252 49.9599 21.0252C50.3399 21.0252 50.6839 20.9472 50.9879 20.7912C51.2919 20.6352 51.5459 20.4072 51.7459 20.1072C51.9459 19.8072 52.0779 19.4452 52.1419 19.0232H55.2859C55.2339 19.9412 54.9839 20.7472 54.5379 21.4432C54.0919 22.1392 53.4779 22.6832 52.6959 23.0732C51.9139 23.4652 50.9879 23.6592 49.9179 23.6592C48.6879 23.6592 47.6299 23.3972 46.7459 22.8732C45.8619 22.3492 45.1839 21.6212 44.7119 20.6872C44.2399 19.7532 44.0039 18.6792 44.0039 17.4652C44.0039 16.2512 44.2419 15.1532 44.7199 14.2232C45.1979 13.2932 45.8759 12.5652 46.7579 12.0412C47.6399 11.5172 48.6879 11.2552 49.9019 11.2552C50.9499 11.2552 51.8679 11.4452 52.6559 11.8272C53.4439 12.2072 54.0659 12.7432 54.5259 13.4312C54.9839 14.1192 55.2379 14.9272 55.2839 15.8552H52.1399C52.0519 15.2552 51.8179 14.7712 51.4399 14.4032C51.0619 14.0352 50.5679 13.8512 49.9579 13.8512C49.4419 13.8512 48.9919 13.9912 48.6079 14.2692C48.2239 14.5492 47.9259 14.9532 47.7119 15.4852L47.7139 15.4872ZM67.7699 14.6792C68.0579 15.4412 68.2019 16.3352 68.2019 17.3592V18.2732H60.0179V18.2812C60.0179 18.8752 60.1299 19.3892 60.3519 19.8212C60.5739 20.2532 60.8879 20.5892 61.2939 20.8232C61.7019 21.0572 62.1819 21.1752 62.7399 21.1752C63.1119 21.1752 63.4499 21.1232 63.7559 21.0192C64.0659 20.9152 64.3299 20.7592 64.5479 20.5512C64.7659 20.3412 64.9319 20.0872 65.0479 19.7832L68.1299 19.9872C67.9739 20.7292 67.6519 21.3732 67.1739 21.9232C66.6899 22.4752 66.0699 22.9012 65.3099 23.2072C64.5519 23.5132 63.6779 23.6632 62.6859 23.6632C61.4499 23.6632 60.3879 23.4152 59.4999 22.9112C58.6099 22.4072 57.9239 21.6932 57.4439 20.7652C56.9639 19.8412 56.7239 18.7432 56.7239 17.4772C56.7239 16.2112 56.9639 15.1552 57.4439 14.2232C57.9239 13.2892 58.6019 12.5632 59.4739 12.0412C60.3479 11.5192 61.3739 11.2572 62.5519 11.2572C63.3439 11.2572 64.0859 11.3832 64.7699 11.6352C65.4559 11.8912 66.0559 12.2692 66.5699 12.7752C67.0819 13.2792 67.4839 13.9152 67.7699 14.6792ZM65.0639 16.2092C65.0639 15.7292 64.9579 15.3032 64.7519 14.9332C64.5419 14.5612 64.2539 14.2712 63.8859 14.0612C63.5199 13.8492 63.0939 13.7432 62.6079 13.7432C62.1219 13.7432 61.6539 13.8612 61.2679 14.0912C60.8779 14.3252 60.5759 14.6332 60.3559 15.0212C60.1539 15.3812 60.0479 15.7772 60.0279 16.2092H65.0659H65.0639ZM76.3979 11.2412C75.7259 11.2412 75.1299 11.4332 74.6139 11.8152C74.0979 12.1992 73.7299 12.7632 73.5119 13.5092H73.3859V11.4132H70.1559V23.4292H73.4879V16.6312C73.4879 16.1412 73.5979 15.7092 73.8199 15.3332C74.0419 14.9572 74.3439 14.6652 74.7279 14.4532C75.1119 14.2412 75.5479 14.1372 76.0379 14.1372C76.2679 14.1372 76.5199 14.1552 76.7959 14.1912C77.0719 14.2272 77.2879 14.2692 77.4459 14.3172V11.3612C77.2999 11.3252 77.1299 11.2952 76.9379 11.2752C76.7459 11.2552 76.5659 11.2432 76.3979 11.2432V11.2412ZM85.2679 20.8672C85.1119 20.8952 84.9559 20.9112 84.7979 20.9112C84.5739 20.9112 84.3759 20.8772 84.2079 20.8092C84.0379 20.7412 83.9059 20.6232 83.8119 20.4532C83.7179 20.2832 83.6719 20.0452 83.6719 19.7372V13.9172H85.9319V11.4132H83.6719V8.53521H80.3399V11.4132H78.6979V13.9172H80.3399V20.1752C80.3339 20.9632 80.4999 21.6152 80.8319 22.1312C81.1659 22.6472 81.6339 23.0292 82.2359 23.2732C82.8379 23.5172 83.5419 23.6252 84.3439 23.5932C84.7759 23.5772 85.1439 23.5352 85.4459 23.4632C85.7479 23.3932 85.9839 23.3312 86.1499 23.2792L85.6259 20.7992C85.5419 20.8152 85.4219 20.8372 85.2659 20.8652L85.2679 20.8672ZM89.5539 6.49321C89.0639 6.49321 88.6419 6.65921 88.2859 6.98921C87.9319 7.32121 87.7539 7.71721 87.7539 8.18121C87.7539 8.64521 87.9299 9.04121 88.2819 9.36921C88.6339 9.69721 89.0579 9.86121 89.5539 9.86121C90.0499 9.86121 90.4739 9.69521 90.8259 9.36521C91.1779 9.03321 91.3539 8.63721 91.3539 8.17121C91.3539 7.70521 91.1779 7.31121 90.8259 6.98321C90.4739 6.65521 90.0499 6.49121 89.5539 6.49121V6.49321ZM87.8799 23.4292H91.2119V11.4132H87.8799V23.4292ZM98.0079 9.65721C98.1999 9.43121 98.5419 9.31721 99.0319 9.31721C99.2299 9.31721 99.4239 9.33521 99.6139 9.37121C99.8039 9.40721 99.9639 9.44721 100.096 9.48921L100.69 6.98521C100.482 6.92321 100.164 6.85321 99.7399 6.77321C99.3159 6.69521 98.8459 6.65521 98.3359 6.65521C97.5799 6.65521 96.9039 6.79921 96.3099 7.08521C95.7159 7.37121 95.2479 7.80321 94.9059 8.37521C94.5639 8.94921 94.3939 9.67121 94.3939 10.5412V11.4092H92.6959V13.9132H94.3939V23.4252H97.7179V13.9132H100.112V11.4092H97.7179V10.6032C97.7179 10.1972 97.8139 9.87921 98.0079 9.65321V9.65721ZM103.6 6.49321C103.11 6.49321 102.688 6.65921 102.332 6.98921C101.978 7.32121 101.8 7.71721 101.8 8.18121C101.8 8.64521 101.976 9.04121 102.328 9.36921C102.68 9.69721 103.104 9.86121 103.6 9.86121C104.096 9.86121 104.52 9.69521 104.872 9.36521C105.224 9.03321 105.4 8.63721 105.4 8.17121C105.4 7.70521 105.224 7.31121 104.872 6.98321C104.52 6.65521 104.096 6.49121 103.6 6.49121V6.49321ZM101.926 23.4292H105.258V11.4132H101.926V23.4292ZM111.816 14.2732C112.2 13.9952 112.65 13.8552 113.166 13.8552C113.776 13.8552 114.27 14.0392 114.648 14.4072C115.026 14.7752 115.26 15.2592 115.348 15.8592H118.492C118.446 14.9312 118.192 14.1232 117.734 13.4352C117.276 12.7472 116.652 12.2132 115.864 11.8312C115.076 11.4512 114.158 11.2592 113.11 11.2592C111.894 11.2592 110.846 11.5212 109.966 12.0452C109.084 12.5692 108.406 13.2972 107.928 14.2272C107.45 15.1592 107.212 16.2392 107.212 17.4692C107.212 18.6992 107.448 19.7592 107.92 20.6912C108.392 21.6252 109.07 22.3532 109.954 22.8772C110.838 23.4012 111.896 23.6632 113.126 23.6632C114.194 23.6632 115.12 23.4672 115.904 23.0772C116.686 22.6872 117.3 22.1432 117.746 21.4472C118.192 20.7512 118.44 19.9432 118.494 19.0272H115.35C115.288 19.4492 115.156 19.8112 114.954 20.1112C114.754 20.4112 114.5 20.6392 114.196 20.7952C113.89 20.9512 113.548 21.0292 113.168 21.0292C112.652 21.0292 112.2 20.8892 111.814 20.6072C111.428 20.3252 111.13 19.9152 110.918 19.3792C110.706 18.8432 110.602 18.1892 110.602 17.4232C110.602 16.6572 110.708 16.0232 110.922 15.4912C111.136 14.9592 111.434 14.5532 111.818 14.2752L111.816 14.2732ZM130.192 13.4832C130.468 13.9972 130.61 14.6112 130.61 15.3252V23.4272H127.448V21.7632H127.354C127.16 22.1392 126.9 22.4672 126.58 22.7532C126.256 23.0352 125.866 23.2572 125.412 23.4172C124.96 23.5752 124.434 23.6572 123.84 23.6572C123.074 23.6572 122.392 23.5232 121.792 23.2552C121.192 22.9852 120.718 22.5852 120.374 22.0572C120.026 21.5252 119.852 20.8672 119.852 20.0732C119.852 19.4052 119.976 18.8432 120.222 18.3912C120.464 17.9372 120.802 17.5712 121.224 17.2952C121.644 17.0192 122.126 16.8092 122.668 16.6672C123.208 16.5272 123.774 16.4272 124.368 16.3712C125.068 16.2992 125.628 16.2292 126.056 16.1652C126.486 16.0992 126.794 16.0032 126.986 15.8712C127.18 15.7412 127.276 15.5512 127.276 15.2912V15.2452C127.276 14.7512 127.12 14.3652 126.812 14.0932C126.5 13.8232 126.062 13.6892 125.492 13.6892C124.892 13.6892 124.414 13.8212 124.06 14.0852C123.706 14.3452 123.472 14.6772 123.354 15.0712L120.274 14.8232C120.43 14.0932 120.738 13.4612 121.198 12.9272C121.656 12.3932 122.248 11.9792 122.978 11.6912C123.704 11.3992 124.55 11.2552 125.506 11.2552C126.174 11.2552 126.814 11.3332 127.428 11.4892C128.04 11.6452 128.584 11.8872 129.064 12.2172C129.542 12.5452 129.916 12.9672 130.192 13.4792V13.4832ZM127.3 17.8612C127.196 17.9272 127.05 17.9912 126.874 18.0452C126.69 18.0992 126.49 18.1492 126.266 18.1952C126.044 18.2372 125.818 18.2772 125.594 18.3112C125.37 18.3452 125.168 18.3732 124.986 18.4012C124.592 18.4572 124.254 18.5472 123.96 18.6732C123.67 18.7992 123.442 18.9672 123.28 19.1772C123.118 19.3872 123.036 19.6512 123.036 19.9632C123.036 20.4172 123.204 20.7632 123.534 21.0012C123.864 21.2392 124.288 21.3552 124.798 21.3552C125.308 21.3552 125.722 21.2592 126.096 21.0612C126.472 20.8672 126.764 20.6032 126.982 20.2692C127.196 19.9372 127.302 19.5592 127.302 19.1352V17.8592L127.3 17.8612ZM138.702 20.8672C138.546 20.8952 138.39 20.9112 138.232 20.9112C138.008 20.9112 137.81 20.8772 137.642 20.8092C137.472 20.7412 137.34 20.6232 137.246 20.4532C137.152 20.2832 137.106 20.0452 137.106 19.7372V13.9172H139.366V11.4132H137.106V8.53521H133.774V11.4132H132.132V13.9172H133.774V20.1752C133.768 20.9632 133.934 21.6152 134.266 22.1312C134.6 22.6472 135.068 23.0292 135.67 23.2732C136.272 23.5172 136.976 23.6252 137.778 23.5932C138.21 23.5772 138.578 23.5352 138.88 23.4632C139.182 23.3932 139.418 23.3312 139.584 23.2792L139.06 20.7992C138.976 20.8152 138.856 20.8372 138.7 20.8652L138.702 20.8672ZM151.75 14.6812C152.036 15.4432 152.18 16.3372 152.18 17.3612V18.2752H143.998V18.2832C143.998 18.8772 144.11 19.3912 144.332 19.8232C144.55 20.2552 144.866 20.5912 145.274 20.8252C145.68 21.0592 146.162 21.1772 146.72 21.1772C147.092 21.1772 147.428 21.1252 147.736 21.0212C148.046 20.9172 148.306 20.7612 148.526 20.5532C148.748 20.3432 148.914 20.0892 149.028 19.7852L152.112 19.9892C151.956 20.7312 151.634 21.3752 151.152 21.9252C150.668 22.4772 150.052 22.9032 149.292 23.2092C148.534 23.5152 147.656 23.6652 146.668 23.6652C145.432 23.6652 144.37 23.4172 143.478 22.9132C142.59 22.4092 141.906 21.6952 141.426 20.7672C140.946 19.8432 140.706 18.7452 140.706 17.4792C140.706 16.2132 140.946 15.1572 141.426 14.2252C141.906 13.2912 142.58 12.5652 143.456 12.0432C144.33 11.5212 145.354 11.2592 146.534 11.2592C147.326 11.2592 148.064 11.3852 148.75 11.6372C149.434 11.8932 150.034 12.2712 150.55 12.7772C151.062 13.2812 151.462 13.9172 151.75 14.6812ZM149.044 16.2112C149.044 15.7312 148.94 15.3052 148.73 14.9352C148.522 14.5632 148.236 14.2732 147.866 14.0632C147.5 13.8512 147.072 13.7452 146.588 13.7452C146.08 13.7452 145.634 13.8632 145.248 14.0932C144.858 14.3272 144.554 14.6352 144.336 15.0232C144.134 15.3832 144.026 15.7792 144.006 16.2112H149.046H149.044ZM160.932 16.4532L158.758 16.0152C158.2 15.8952 157.806 15.7372 157.576 15.5372C157.346 15.3392 157.232 15.0972 157.232 14.8092C157.232 14.4492 157.41 14.1612 157.764 13.9452C158.118 13.7292 158.554 13.6212 159.07 13.6212C159.456 13.6212 159.788 13.6852 160.068 13.8132C160.346 13.9412 160.572 14.1112 160.744 14.3212C160.916 14.5332 161.028 14.7692 161.08 15.0292L164.13 14.8412C163.984 13.7352 163.474 12.8612 162.6 12.2212C161.726 11.5792 160.53 11.2592 159.014 11.2592C157.986 11.2592 157.09 11.4112 156.328 11.7132C155.564 12.0152 154.972 12.4452 154.552 13.0032C154.132 13.5612 153.922 14.2272 153.922 14.9972C153.922 15.8952 154.208 16.6312 154.778 17.2112C155.348 17.7892 156.222 18.1972 157.394 18.4312L159.474 18.8452C159.996 18.9492 160.382 19.0992 160.632 19.2952C160.882 19.4912 161.01 19.7392 161.016 20.0432C161.01 20.4032 160.83 20.6972 160.472 20.9232C160.114 21.1492 159.644 21.2632 159.06 21.2632C158.476 21.2632 157.978 21.1372 157.598 20.8832C157.218 20.6312 156.978 20.2612 156.878 19.7772L153.6 19.9492C153.762 21.0972 154.312 22.0032 155.254 22.6672C156.196 23.3312 157.462 23.6652 159.052 23.6652C160.096 23.6652 161.016 23.4992 161.818 23.1692C162.618 22.8372 163.25 22.3752 163.712 21.7812C164.174 21.1872 164.404 20.4952 164.404 19.7072C164.404 18.8412 164.118 18.1432 163.544 17.6112C162.97 17.0792 162.1 16.6932 160.932 16.4532Z" fill="#E6E9FA"/>
<path d="M33.374 18.8806C34.21 18.0826 34.21 16.7466 33.374 15.9466L31.878 14.5186C31.328 13.9966 31.118 13.2106 31.332 12.4826L31.914 10.4986C32.238 9.38856 31.57 8.23056 30.446 7.95656L28.438 7.46856C27.7 7.29056 27.126 6.71456 26.946 5.97856L26.458 3.96856C26.184 2.84456 25.028 2.17656 23.918 2.50256L21.932 3.08256C21.204 3.29656 20.42 3.08656 19.896 2.53656L18.468 1.04256C17.67 0.204562 16.334 0.204562 15.534 1.04256L14.106 2.53656C13.584 3.08656 12.798 3.29656 12.07 3.08256L10.086 2.50256C8.97398 2.17656 7.81798 2.84456 7.54398 3.96856L7.05598 5.97856C6.87798 6.71456 6.30198 7.29056 5.56598 7.46856L3.55598 7.95656C2.43198 8.23056 1.76398 9.38856 2.08798 10.4986L2.66998 12.4826C2.88398 13.2106 2.67398 13.9966 2.12398 14.5186L0.627977 15.9466C-0.208023 16.7466 -0.208023 18.0826 0.627977 18.8806L2.12398 20.3086C2.67398 20.8326 2.88398 21.6186 2.66998 22.3446L2.08798 24.3306C1.76398 25.4406 2.43198 26.5966 3.55598 26.8706L5.56598 27.3586C6.30198 27.5386 6.87798 28.1126 7.05598 28.8506L7.54398 30.8586C7.81798 31.9826 8.97398 32.6506 10.086 32.3266L12.07 31.7446C12.798 31.5306 13.584 31.7446 14.106 32.2906L15.534 33.7866C16.334 34.6226 17.67 34.6226 18.468 33.7866L19.896 32.2906C20.42 31.7426 21.204 31.5306 21.932 31.7446L23.918 32.3266C25.028 32.6506 26.184 31.9826 26.458 30.8586L26.946 28.8506C27.126 28.1126 27.7 27.5386 28.438 27.3586L30.446 26.8706C31.57 26.5966 32.238 25.4406 31.914 24.3306L31.332 22.3446C31.118 21.6186 31.328 20.8326 31.878 20.3086L33.374 18.8806ZM15.604 21.2686L13.62 23.2506L7.81998 17.4506L13.62 11.6506L15.604 13.6346L11.786 17.4506L15.604 21.2686ZM20.42 23.2506L18.436 21.2686L22.254 17.4506L18.436 13.6346L20.42 11.6506L26.22 17.4506L20.42 23.2506Z" fill="url(#paint0_linear_1089_579)"/>
<path d="M168.236 19.8906C167.72 19.8906 167.278 20.0726 166.91 20.4386C166.542 20.8046 166.358 21.2426 166.358 21.7526C166.358 22.2626 166.542 22.7106 166.91 23.0786C167.278 23.4466 167.72 23.6306 168.236 23.6306C168.574 23.6306 168.886 23.5466 169.166 23.3766C169.448 23.2066 169.676 22.9806 169.85 22.6966C170.024 22.4126 170.112 22.0986 170.112 21.7546C170.112 21.2446 169.924 20.8066 169.548 20.4406C169.172 20.0766 168.734 19.8926 168.234 19.8926L168.236 19.8906Z" fill="#E6E9FA"/>
<path d="M180.562 7.40527V13.4293H180.46C180.316 13.1053 180.102 12.7753 179.824 12.4393C179.544 12.1033 179.178 11.8213 178.728 11.5933C178.278 11.3693 177.714 11.2553 177.042 11.2553C176.16 11.2553 175.35 11.4833 174.612 11.9393C173.874 12.3953 173.286 13.0813 172.842 13.9973C172.398 14.9113 172.176 16.0573 172.176 17.4353C172.176 18.8133 172.392 19.9033 172.822 20.8253C173.254 21.7453 173.836 22.4413 174.574 22.9133C175.312 23.3873 176.136 23.6213 177.052 23.6213C177.696 23.6213 178.246 23.5153 178.696 23.2993C179.148 23.0873 179.514 22.8173 179.8 22.4933C180.084 22.1653 180.304 21.8353 180.46 21.5033H180.604V23.4253H183.888V7.40527H180.562ZM180.33 19.2893C180.132 19.8193 179.844 20.2333 179.472 20.5273C179.098 20.8213 178.644 20.9693 178.108 20.9693C177.572 20.9693 177.1 20.8193 176.724 20.5213C176.352 20.2213 176.068 19.8053 175.872 19.2673C175.678 18.7333 175.578 18.1193 175.578 17.4193C175.578 16.7193 175.678 16.1153 175.87 15.5893C176.062 15.0613 176.346 14.6513 176.722 14.3533C177.096 14.0533 177.558 13.9073 178.108 13.9073C178.658 13.9073 179.1 14.0513 179.476 14.3353C179.85 14.6233 180.138 15.0313 180.336 15.5573C180.534 16.0853 180.634 16.7053 180.634 17.4193C180.634 18.1333 180.532 18.7573 180.33 19.2893Z" fill="#E6E9FA"/>
<path d="M197.388 18.2709V17.3569C197.388 16.3329 197.244 15.4389 196.956 14.6769C196.672 13.9129 196.27 13.2769 195.756 12.7729C195.244 12.2649 194.644 11.8869 193.956 11.6329C193.272 11.3809 192.532 11.2549 191.74 11.2549C190.56 11.2549 189.534 11.5149 188.662 12.0369C187.788 12.5589 187.11 13.2849 186.63 14.2189C186.15 15.1509 185.91 16.2369 185.91 17.4729C185.91 18.7089 186.15 19.8369 186.63 20.7609C187.11 21.6889 187.794 22.4029 188.686 22.9069C189.574 23.4109 190.636 23.6589 191.872 23.6589C192.864 23.6589 193.738 23.5089 194.496 23.2029C195.256 22.8969 195.876 22.4709 196.36 21.9189C196.842 21.3709 197.16 20.7249 197.316 19.9849L194.236 19.7809C194.122 20.0829 193.954 20.3389 193.734 20.5489C193.516 20.7549 193.252 20.9109 192.946 21.0169C192.636 21.1209 192.298 21.1729 191.928 21.1729C191.37 21.1729 190.888 21.0549 190.48 20.8209C190.074 20.5869 189.76 20.2509 189.538 19.8189C189.316 19.3869 189.204 18.8749 189.204 18.2809V18.2709H197.388ZM189.54 15.0189C189.76 14.6329 190.066 14.3229 190.452 14.0889C190.842 13.8589 191.29 13.7409 191.794 13.7409C192.298 13.7409 192.706 13.8469 193.074 14.0589C193.44 14.2689 193.728 14.5609 193.938 14.9329C194.146 15.3009 194.25 15.7269 194.25 16.2069H189.214C189.232 15.7749 189.34 15.3789 189.54 15.0189Z" fill="#E6E9FA"/>
<path d="M206.678 11.4111L204.19 20.0071H204.066L201.57 11.4111H198.05L202.25 23.4271H206.006L210.206 11.4111H206.678Z" fill="#E6E9FA"/>
</g>
<defs>
<linearGradient id="paint0_linear_1089_579" x1="0.000976563" y1="34.4136" x2="34.001" y2="34.4136" gradientUnits="userSpaceOnUse">
<stop stop-color="#4255FF"/>
<stop offset="1" stop-color="#00A3FF"/>
</linearGradient>
<clipPath id="clip0_1089_579">
<rect width="210.206" height="34" fill="white" transform="translate(0 0.415039)"/>
</clipPath>
</defs>
</svg>
