<svg width="209" height="35" viewBox="0 0 209 35" fill="none" xmlns="http://www.w3.org/2000/svg">
<path d="M31.5794 14.605C31.0365 14.081 30.8284 13.295 31.0404 12.569L31.617 10.587C31.94 9.475 31.2762 8.319 30.1647 8.043L28.1714 7.557C27.4442 7.377 26.8736 6.803 26.6953 6.065L26.2098 4.055C25.9403 2.933 24.7951 2.263 23.6935 2.589L21.7259 3.171C21.0047 3.385 20.226 3.175 19.7089 2.623L18.2942 1.127C17.5036 0.291 16.178 0.291 15.3914 1.127L13.9767 2.623C13.4576 3.173 12.6789 3.385 11.9597 3.171L9.99215 2.589C8.89049 2.263 7.74525 2.933 7.47578 4.055L6.99034 6.065C6.81202 6.803 6.24336 7.377 5.51223 7.557L3.52093 8.043C2.40937 8.319 1.7456 9.475 2.06857 10.587L2.64515 12.569C2.85716 13.297 2.64912 14.081 2.10622 14.605L0.624138 16.033C-0.208046 16.833 -0.208046 18.169 0.624138 18.967L2.10622 20.395C2.64912 20.919 2.85716 21.705 2.64515 22.431L2.06857 24.417C1.7456 25.525 2.40937 26.685 3.52093 26.957L5.51223 27.447C6.24336 27.623 6.81202 28.201 6.99034 28.937L7.47578 30.947C7.74525 32.073 8.89049 32.739 9.99215 32.415L11.9597 31.833C12.6809 31.619 13.4596 31.829 13.9767 32.377L15.3914 33.873C16.18 34.709 17.5036 34.709 18.2942 33.873L19.7089 32.377C20.228 31.829 21.0067 31.619 21.7259 31.833L23.6935 32.415C24.7951 32.737 25.9403 32.071 26.2098 30.947L26.6953 28.937C26.8736 28.203 27.4422 27.625 28.1714 27.447L30.1647 26.957C31.2762 26.685 31.94 25.525 31.617 24.417L31.0404 22.431C30.8284 21.703 31.0365 20.919 31.5794 20.395L33.0615 18.967C33.8897 18.169 33.8897 16.831 33.0615 16.033L31.5794 14.605ZM14.7633 20.619C15.2884 21.149 15.2884 22.009 14.7633 22.543C14.4998 22.809 14.1531 22.941 13.8103 22.941C13.4675 22.941 13.1208 22.809 12.8572 22.543L8.8152 18.463C8.29013 17.929 8.29013 17.069 8.8152 16.539L12.8572 12.459C13.3823 11.929 14.2383 11.929 14.7633 12.459C15.2884 12.989 15.2884 13.849 14.7633 14.383L11.6743 17.501L14.7633 20.619ZM24.8684 18.463L20.8264 22.543C20.5629 22.809 20.2161 22.941 19.8733 22.941C19.5306 22.941 19.1838 22.809 18.9203 22.543C18.3952 22.009 18.3952 21.149 18.9203 20.619L22.0093 17.501L18.9203 14.383C18.3952 13.849 18.3952 12.989 18.9203 12.459C19.4454 11.929 20.3013 11.929 20.8264 12.459L24.8684 16.539C25.3935 17.069 25.3935 17.929 24.8684 18.463Z" fill="url(#paint0_linear_1082_1450)"/>
<path fill-rule="evenodd" clip-rule="evenodd" d="M88.7189 6.57666C88.2334 6.57666 87.8153 6.74266 87.4627 7.07266C87.112 7.40466 86.9356 7.80066 86.9356 8.26466C86.9356 8.72866 87.11 9.12466 87.4587 9.45266C87.8074 9.78066 88.2275 9.94466 88.7189 9.94466C89.2102 9.94466 89.6303 9.77866 89.979 9.44866C90.3277 9.11666 90.5021 8.72066 90.5021 8.25666C90.5021 7.79266 90.3277 7.39666 89.979 7.06866C89.6303 6.74066 89.2102 6.57666 88.7189 6.57666ZM84.0071 20.9947C84.1636 20.9947 84.3182 20.9787 84.4727 20.9507L84.4707 20.9487C84.6253 20.9207 84.7442 20.8987 84.8274 20.8827L85.3465 23.3627C85.1821 23.4147 84.9482 23.4767 84.6491 23.5467C84.3499 23.6187 83.9853 23.6607 83.5573 23.6767C82.7628 23.7087 82.0653 23.6007 81.4689 23.3567C80.8725 23.1127 80.4089 22.7306 80.078 22.2147C79.7491 21.6987 79.5846 21.0467 79.5906 20.2587V14.0007H77.9639V11.4967H79.5906V8.61865H82.8916V11.4967H85.1305V14.0007H82.8916V19.8207C82.8916 20.1287 82.9371 20.3667 83.0303 20.5367C83.1234 20.7067 83.2542 20.8247 83.4226 20.8927C83.589 20.9607 83.7852 20.9947 84.0071 20.9947ZM75.6854 11.3242C75.0197 11.3242 74.4292 11.5162 73.918 11.8982C73.4068 12.2822 73.0422 12.8462 72.8263 13.5922H72.7014V11.4962H69.5015V23.5122H72.8025V16.7142C72.8025 16.2242 72.9115 15.7902 73.1314 15.4162C73.3513 15.0402 73.6505 14.7482 74.0309 14.5362C74.4114 14.3242 74.8433 14.2202 75.3287 14.2202C75.5566 14.2202 75.8063 14.2382 76.0797 14.2742C76.3531 14.3102 76.5671 14.3522 76.7236 14.4002V11.4442C76.579 11.4082 76.4106 11.3782 76.2204 11.3582C76.0302 11.3382 75.8518 11.3262 75.6854 11.3262V11.3242ZM49.4953 13.9388C48.9841 13.9388 48.5383 14.0788 48.1578 14.3568L48.1598 14.3548C47.7794 14.6328 47.4842 15.0388 47.2722 15.5708C47.0601 16.1028 46.9551 16.7348 46.9551 17.5028C46.9551 18.2708 47.0582 18.9228 47.2682 19.4588C47.4782 19.9948 47.7734 20.4048 48.1559 20.6868C48.5383 20.9688 48.9861 21.1088 49.4973 21.1088C49.8737 21.1088 50.2125 21.0308 50.5157 20.8748C50.8169 20.7188 51.0685 20.4908 51.2666 20.1908C51.4668 19.8908 51.5975 19.5288 51.659 19.1068H54.7737C54.7202 20.0248 54.4745 20.8328 54.0327 21.5288C53.5908 22.2248 52.9825 22.7688 52.2078 23.1588C51.4311 23.5488 50.5157 23.7448 49.4557 23.7448C48.2371 23.7448 47.1889 23.4828 46.3132 22.9588C45.4374 22.4348 44.7657 21.7068 44.2981 20.7728C43.8305 19.8408 43.5967 18.7808 43.5967 17.5508C43.5967 16.3208 43.8325 15.2388 44.306 14.3088C44.7796 13.3788 45.4513 12.6508 46.3251 12.1268C47.1969 11.6028 48.2351 11.3408 49.4398 11.3408C50.478 11.3408 51.3875 11.5328 52.1682 11.9128C52.9488 12.2948 53.5651 12.8288 54.0208 13.5168C54.4745 14.2068 54.7261 15.0148 54.7717 15.9428H51.657C51.5698 15.3428 51.338 14.8588 50.9635 14.4908C50.589 14.1228 50.0996 13.9388 49.4953 13.9388ZM64.1673 11.7188C64.8469 11.9728 65.4413 12.3508 65.9505 12.8588H65.9486C66.4558 13.3628 66.8541 13.9988 67.1374 14.7628C67.4227 15.5248 67.5654 16.4188 67.5654 17.4428V18.3568H59.4575V18.3648C59.4575 18.9608 59.5685 19.4728 59.7884 19.9048C60.0084 20.3368 60.3214 20.6728 60.7217 20.9068C61.1259 21.1388 61.6014 21.2568 62.1542 21.2568C62.5227 21.2568 62.8576 21.2068 63.1607 21.1008C63.4659 20.9968 63.7274 20.8408 63.9454 20.6328C64.1613 20.4228 64.3238 20.1688 64.4407 19.8648L67.494 20.0688C67.3395 20.8108 67.0225 21.4548 66.5469 22.0048C66.0674 22.5568 65.4532 22.9828 64.7003 23.2888C63.9493 23.5948 63.0835 23.7448 62.1007 23.7448C60.8762 23.7448 59.8241 23.4968 58.9443 22.9928C58.0626 22.4868 57.385 21.7748 56.9095 20.8468C56.4339 19.9228 56.1962 18.7948 56.1962 17.5588C56.1962 16.3228 56.4339 15.2368 56.9095 14.3048C57.385 13.3708 58.0567 12.6448 58.9206 12.1228C59.7864 11.6008 60.8029 11.3408 61.9699 11.3408C62.7565 11.3408 63.4897 11.4668 64.1673 11.7188ZM59.7904 15.1068C59.5923 15.4668 59.4853 15.8628 59.4674 16.2948H64.4566C64.4566 15.8148 64.3516 15.3888 64.1475 15.0208C63.9394 14.6488 63.6521 14.3568 63.2876 14.1468C62.925 13.9348 62.5208 13.8288 62.0214 13.8288C61.5221 13.8288 61.0763 13.9448 60.6939 14.1768C60.3075 14.4108 60.0084 14.7208 59.7904 15.1068ZM87.0604 11.4968H90.3614V23.5128H87.0604V11.4968ZM97.0943 9.7408C97.2845 9.5148 97.6233 9.4008 98.1087 9.4008C98.3049 9.4008 98.4971 9.4188 98.6853 9.4548C98.8735 9.4908 99.0321 9.5308 99.1628 9.5728L99.7513 7.0688C99.5452 7.0068 99.2302 6.9368 98.8101 6.8568C98.3901 6.7788 97.9245 6.7388 97.4192 6.7388C96.6702 6.7388 96.0005 6.8828 95.4121 7.1688C94.8236 7.4548 94.3599 7.8868 94.0211 8.4588C93.6823 9.0328 93.5139 9.7548 93.5139 10.6248V11.4928H91.8317V13.9968H93.5139V23.5088H96.807V13.9968H99.1787V11.4928H96.807V10.6868C96.807 10.2808 96.9021 9.9628 97.0943 9.7368V9.7408ZM101.378 7.07266C101.731 6.74266 102.149 6.57666 102.634 6.57666C103.125 6.57666 103.545 6.74066 103.894 7.06866C104.243 7.39666 104.417 7.79266 104.417 8.25666C104.417 8.72066 104.243 9.11666 103.894 9.44866C103.545 9.77866 103.125 9.94466 102.634 9.94466C102.143 9.94466 101.723 9.78066 101.374 9.45266C101.025 9.12466 100.851 8.72866 100.851 8.26466C100.851 7.80066 101.027 7.40466 101.378 7.07266ZM104.277 11.4968H100.976V23.5128H104.277V11.4968ZM112.111 13.9388C111.6 13.9388 111.154 14.0788 110.774 14.3568L110.776 14.3548C110.395 14.6328 110.1 15.0388 109.888 15.5708C109.676 16.1028 109.571 16.7348 109.571 17.5028C109.571 18.2708 109.674 18.9228 109.884 19.4588C110.094 19.9948 110.389 20.4048 110.772 20.6868C111.154 20.9688 111.602 21.1088 112.113 21.1088C112.49 21.1088 112.828 21.0308 113.132 20.8748C113.433 20.7188 113.684 20.4908 113.882 20.1908C114.083 19.8908 114.213 19.5288 114.275 19.1068H117.39C117.336 20.0248 117.09 20.8328 116.648 21.5288C116.207 22.2248 115.598 22.7688 114.824 23.1588C114.047 23.5488 113.132 23.7448 112.071 23.7448C110.853 23.7448 109.805 23.4828 108.929 22.9588C108.053 22.4348 107.382 21.7068 106.914 20.7728C106.446 19.8408 106.213 18.7808 106.213 17.5508C106.213 16.3208 106.448 15.2388 106.922 14.3088C107.395 13.3788 108.067 12.6508 108.941 12.1268C109.813 11.6028 110.851 11.3408 112.056 11.3408C113.094 11.3408 114.003 11.5328 114.784 11.9128C115.565 12.2948 116.183 12.8288 116.637 13.5168C117.09 14.2068 117.342 15.0148 117.388 15.9428H114.273C114.186 15.3428 113.954 14.8588 113.579 14.4908C113.205 14.1228 112.715 13.9388 112.111 13.9388ZM127.861 12.3028C127.386 11.9728 126.847 11.7288 126.24 11.5748C125.632 11.4188 124.998 11.3408 124.336 11.3408C123.389 11.3408 122.549 11.4848 121.832 11.7768C121.109 12.0648 120.524 12.4788 120.068 13.0128C119.613 13.5468 119.308 14.1808 119.153 14.9088L122.204 15.1568C122.321 14.7608 122.553 14.4308 122.902 14.1708C123.252 13.9068 123.726 13.7748 124.32 13.7748C124.915 13.7748 125.319 13.9108 125.628 14.1808C125.935 14.4528 126.088 14.8388 126.088 15.3328V15.3788C126.088 15.6368 125.993 15.8288 125.801 15.9568C125.61 16.0888 125.305 16.1848 124.879 16.2508C124.453 16.3168 123.898 16.3868 123.205 16.4588C122.616 16.5168 122.056 16.6148 121.521 16.7548C120.986 16.8968 120.506 17.1068 120.09 17.3828C119.672 17.6588 119.337 18.0248 119.097 18.4788C118.854 18.9308 118.731 19.4928 118.731 20.1608C118.731 20.9528 118.903 21.6128 119.248 22.1428C119.591 22.6708 120.058 23.0708 120.653 23.3388C121.247 23.6068 121.925 23.7408 122.682 23.7408C123.27 23.7408 123.789 23.6588 124.239 23.5008C124.689 23.3408 125.075 23.1188 125.396 22.8368C125.713 22.5508 125.971 22.2228 126.163 21.8468H126.256V23.5108H129.389V15.4068C129.389 14.6928 129.25 14.0788 128.975 13.5648C128.701 13.0528 128.329 12.6288 127.857 12.3028H127.861ZM126.114 19.2168C126.114 19.6388 126.007 20.0168 125.795 20.3508C125.581 20.6848 125.289 20.9488 124.919 21.1428C124.548 21.3408 124.12 21.4368 123.633 21.4368C123.145 21.4368 122.71 21.3208 122.381 21.0828C122.054 20.8468 121.887 20.4988 121.887 20.0448C121.887 19.7328 121.969 19.4688 122.129 19.2588C122.289 19.0488 122.515 18.8808 122.803 18.7548C123.094 18.6288 123.429 18.5388 123.819 18.4828C123.999 18.4548 124.2 18.4248 124.423 18.3928C124.645 18.3568 124.869 18.3188 125.089 18.2748C125.311 18.2288 125.511 18.1788 125.694 18.1248C125.868 18.0708 126.011 18.0068 126.116 17.9428V19.2168H126.114ZM136.944 20.9947C137.1 20.9947 137.255 20.9787 137.41 20.9507L137.408 20.9487C137.562 20.9207 137.681 20.8987 137.764 20.8827L138.283 23.3627C138.119 23.4147 137.885 23.4767 137.586 23.5467C137.287 23.6187 136.922 23.6607 136.494 23.6767C135.7 23.7087 135.002 23.6007 134.406 23.3567C133.809 23.1127 133.344 22.7306 133.015 22.2147C132.686 21.6987 132.521 21.0467 132.527 20.2587V14.0007H130.901V11.4967H132.527V8.61865H135.828V11.4967H138.067V14.0007H135.828V19.8207C135.828 20.1287 135.874 20.3667 135.967 20.5367C136.06 20.7067 136.191 20.8247 136.359 20.8927C136.526 20.9607 136.722 20.9947 136.944 20.9947ZM149.147 12.8588C148.636 12.3508 148.042 11.9728 147.364 11.7188C146.684 11.4668 145.953 11.3408 145.167 11.3408C143.998 11.3408 142.983 11.6008 142.117 12.1228C141.25 12.6448 140.58 13.3708 140.106 14.3048C139.631 15.2368 139.393 16.3228 139.393 17.5588C139.393 18.7948 139.631 19.9228 140.106 20.8468C140.582 21.7748 141.259 22.4868 142.139 22.9928C143.023 23.4968 144.075 23.7448 145.299 23.7448C146.28 23.7448 147.148 23.5948 147.899 23.2888C148.652 22.9828 149.264 22.5568 149.742 22.0048C150.219 21.4548 150.538 20.8108 150.693 20.0688L147.638 19.8648C147.525 20.1688 147.362 20.4228 147.142 20.6328C146.926 20.8408 146.667 20.9968 146.36 21.1008C146.054 21.2068 145.722 21.2568 145.351 21.2568C144.798 21.2568 144.321 21.1388 143.918 20.9068C143.514 20.6728 143.201 20.3368 142.985 19.9048C142.765 19.4728 142.656 18.9608 142.656 18.3648V18.3568H150.76V17.4428C150.76 16.4188 150.618 15.5248 150.336 14.7628C150.051 13.9988 149.657 13.3628 149.147 12.8588ZM142.662 16.2948C142.684 15.8628 142.791 15.4668 142.989 15.1068C143.205 14.7208 143.506 14.4108 143.893 14.1768C144.275 13.9448 144.719 13.8288 145.22 13.8288C145.721 13.8288 146.124 13.9348 146.486 14.1468C146.853 14.3568 147.138 14.6488 147.342 15.0208C147.55 15.3888 147.653 15.8148 147.653 16.2948H142.662ZM157.279 16.0968L159.433 16.5348C160.59 16.7748 161.452 17.1608 162.02 17.6928C162.589 18.2248 162.872 18.9228 162.872 19.7888C162.872 20.5768 162.645 21.2688 162.187 21.8628C161.729 22.4568 161.103 22.9208 160.31 23.2508C159.516 23.5808 158.605 23.7468 157.57 23.7468C155.995 23.7468 154.741 23.4148 153.808 22.7488C152.874 22.0848 152.329 21.1788 152.169 20.0308L155.416 19.8588C155.516 20.3428 155.753 20.7128 156.13 20.9648C156.506 21.2188 157 21.3448 157.578 21.3448C158.157 21.3448 158.622 21.2308 158.977 21.0048C159.332 20.7788 159.51 20.4848 159.516 20.1248C159.51 19.8208 159.383 19.5728 159.136 19.3768C158.888 19.1808 158.505 19.0308 157.988 18.9268L155.928 18.5128C154.767 18.2788 153.901 17.8708 153.336 17.2928C152.771 16.7128 152.488 15.9768 152.488 15.0788C152.488 14.3088 152.696 13.6428 153.112 13.0848C153.528 12.5268 154.115 12.0968 154.872 11.7948C155.626 11.4928 156.514 11.3408 157.533 11.3408C159.034 11.3408 160.219 11.6608 161.085 12.3028C161.951 12.9428 162.456 13.8168 162.601 14.9228L159.579 15.1108C159.528 14.8508 159.417 14.6148 159.246 14.4028C159.076 14.1928 158.852 14.0228 158.577 13.8948C158.299 13.7668 157.97 13.7028 157.588 13.7028C157.077 13.7028 156.645 13.8108 156.294 14.0268C155.944 14.2428 155.767 14.5308 155.767 14.8908C155.767 15.1788 155.88 15.4208 156.108 15.6188C156.336 15.8188 156.726 15.9768 157.279 16.0968ZM166.669 19.9769C166.158 19.9769 165.72 20.1589 165.355 20.5249C164.991 20.8909 164.808 21.3289 164.808 21.8389C164.808 22.3489 164.991 22.7969 165.355 23.1649C165.72 23.5329 166.158 23.7169 166.669 23.7169C167.004 23.7169 167.313 23.6329 167.59 23.4629C167.87 23.2929 168.095 23.0669 168.268 22.7829C168.44 22.4989 168.527 22.1849 168.527 21.8409C168.527 21.3309 168.341 20.8929 167.969 20.5269C167.596 20.1629 167.162 19.9789 166.667 19.9789L166.669 19.9769ZM178.779 13.5143H178.878V7.4903H182.175V23.5103H178.92V21.5863H178.777C178.622 21.9183 178.406 22.2483 178.123 22.5763C177.84 22.9003 177.479 23.1703 177.029 23.3843C176.584 23.6003 176.039 23.7043 175.401 23.7043C174.493 23.7043 173.677 23.4703 172.946 22.9963C172.215 22.5243 171.638 21.8283 171.21 20.9083C170.786 19.9883 170.572 18.8963 170.572 17.5183C170.572 16.1403 170.792 14.9943 171.232 14.0803C171.672 13.1643 172.254 12.4783 172.985 12.0223C173.717 11.5663 174.519 11.3383 175.393 11.3383C176.059 11.3383 176.617 11.4543 177.063 11.6783C177.509 11.9063 177.873 12.1883 178.149 12.5243C178.424 12.8603 178.636 13.1903 178.779 13.5143ZM177.802 20.6123C178.171 20.3183 178.456 19.9043 178.652 19.3743V19.3763C178.852 18.8443 178.953 18.2203 178.953 17.5063C178.953 16.7923 178.854 16.1723 178.658 15.6443C178.464 15.1183 178.177 14.7103 177.806 14.4223C177.434 14.1383 176.994 13.9943 176.451 13.9943C175.908 13.9943 175.448 14.1403 175.078 14.4403C174.705 14.7363 174.424 15.1483 174.234 15.6763C174.043 16.2023 173.944 16.8083 173.944 17.5063C173.944 18.2043 174.041 18.8203 174.236 19.3543C174.428 19.8903 174.711 20.3083 175.08 20.6083C175.45 20.9043 175.916 21.0543 176.449 21.0543C176.982 21.0543 177.432 20.9063 177.802 20.6123ZM193.934 12.8588C193.425 12.3508 192.831 11.9728 192.151 11.7188C191.474 11.4668 190.74 11.3408 189.954 11.3408C188.787 11.3408 187.77 11.6008 186.905 12.1228C186.041 12.6448 185.369 13.3708 184.893 14.3048C184.418 15.2368 184.18 16.3228 184.18 17.5588C184.18 18.7948 184.418 19.9228 184.893 20.8468C185.369 21.7748 186.047 22.4868 186.928 22.9928C187.808 23.4968 188.86 23.7448 190.085 23.7448C191.067 23.7448 191.933 23.5948 192.684 23.2888C193.437 22.9828 194.051 22.5568 194.531 22.0048C195.008 21.4548 195.323 20.8108 195.48 20.0688L192.427 19.8648C192.314 20.1688 192.147 20.4228 191.931 20.6328C191.715 20.8408 191.454 20.9968 191.149 21.1008C190.842 21.2068 190.507 21.2568 190.14 21.2568C189.587 21.2568 189.11 21.1388 188.704 20.9068C188.303 20.6728 187.99 20.3368 187.77 19.9048C187.55 19.4728 187.439 18.9608 187.439 18.3648V18.3568H195.547V17.4428C195.547 16.4188 195.405 15.5248 195.119 14.7628C194.836 13.9988 194.44 13.3628 193.931 12.8588H193.934ZM187.453 16.2948C187.471 15.8628 187.578 15.4668 187.778 15.1068C187.994 14.7208 188.297 14.4108 188.682 14.1768C189.068 13.9448 189.51 13.8288 190.009 13.8288C190.509 13.8288 190.913 13.9348 191.279 14.1468C191.642 14.3568 191.927 14.6488 192.135 15.0208C192.341 15.3888 192.444 15.8148 192.444 16.2948H187.455H187.453ZM202.29 20.0928L204.755 11.4968H208.25L204.089 23.5128H200.368L196.207 11.4968H199.694L202.167 20.0928H202.29Z" fill="#07080E"/>
<defs>
<linearGradient id="paint0_linear_1082_1450" x1="33.6826" y1="34.5" x2="33.6826" y2="0.5" gradientUnits="userSpaceOnUse">
<stop stop-color="#00A3FF"/>
<stop offset="1" stop-color="#4255FF"/>
</linearGradient>
</defs>
</svg>
